<svg width="24" height="28" viewBox="0 0 24 28" fill="none" xmlns="http://www.w3.org/2000/svg">
<path d="M9.69302 19.1138C5.30882 19.1138 1.74219 22.6804 1.74219 27.0646C1.74219 27.5813 2.16093 28 2.67755 28H16.7088C17.2254 28 17.6442 27.5813 17.6439 27.0646C17.6439 22.6804 14.0772 19.1138 9.69302 19.1138ZM3.685 26.1292C4.13616 23.2192 6.6586 20.9845 9.69334 20.9845C12.7281 20.9845 15.2505 23.2192 15.7017 26.1292H3.685Z" fill="#606060"/>
<path d="M23.5114 2.08278C22.219 0.790092 20.4948 0.0782318 18.6564 0.0782318C16.8184 0.0782318 15.0945 0.790092 13.8018 2.08278C11.1247 4.75987 11.1247 9.11602 13.8018 11.7931C13.977 11.9687 14.2149 12.0672 14.4631 12.0672C14.7113 12.0672 14.9489 11.9687 15.1244 11.7928L23.5115 3.4055C23.8769 3.0403 23.8769 2.44787 23.5114 2.08278ZM14.5252 9.74672C13.2032 7.80358 13.4027 5.12742 15.1244 3.40571C16.0639 2.46658 17.3179 1.94929 18.6565 1.94929C19.6757 1.94929 20.6458 2.24892 21.4655 2.8064L14.5252 9.74672Z" fill="#606060"/>
<path d="M12.7187 0.213229C12.3538 -0.0867287 11.8241 -0.0682992 11.4818 0.256268L0.506517 10.6391C0.32441 10.8116 0.219028 11.0498 0.214051 11.3008C0.209075 11.5515 0.305105 11.7937 0.48065 11.973L9.0239 20.7033L10.3612 19.3947L2.48329 11.3444L12.168 2.18256L13.8065 3.52923L14.9947 2.08407L12.7187 0.213229Z" fill="#606060"/>
</svg>
