<svg width="24" height="24" viewBox="0 0 24 24" fill="none" xmlns="http://www.w3.org/2000/svg">
<path fill-rule="evenodd" clip-rule="evenodd" d="M4.293 17.6855C4.083 17.4755 3.978 17.1835 4.004 16.8875L4.383 12.7175C4.425 12.2605 4.627 11.8295 4.953 11.5035L13.949 2.5075C14.651 1.8025 15.924 1.8375 16.665 2.5765L19.403 5.3145L19.404 5.3155C20.169 6.0815 20.2 7.2995 19.472 8.0295L10.475 17.0265C10.15 17.3515 9.719 17.5535 9.261 17.5955L5.091 17.9745C5.061 17.9765 5.031 17.9775 5 17.9775C4.737 17.9775 4.482 17.8735 4.293 17.6855ZM16.019 8.6565L13.324 5.9615L15.272 4.0125L17.966 6.7065L16.019 8.6565ZM9.08 15.6025L6.103 15.8735L6.367 12.9175L11.984 7.3005L14.68 9.9975L9.08 15.6025ZM19 21.9775C19.55 21.9775 20 21.5275 20 20.9775C20 20.4285 19.55 19.9775 19 19.9775H5C4.451 19.9775 4 20.4285 4 20.9775C4 21.5275 4.451 21.9775 5 21.9775H19Z" fill="#242424"/>
</svg>
