<svg width="16" height="16" viewBox="0 0 16 16" fill="none" xmlns="http://www.w3.org/2000/svg">
<path d="M15.9687 14.3105L14.6667 2.06061C14.6667 1.29046 14.07 0.666672 13.3333 0.666672H8H2.66667C1.93 0.666672 1.33333 1.29046 1.33333 2.06061L0.0313333 14.3105C0.012 14.406 0 14.5043 0 14.6061C0 15.3762 0.596667 16 1.33333 16H8H14.6667C15.4033 16 16 15.3762 16 14.6061C16 14.5043 15.988 14.406 15.9687 14.3105ZM11.3333 4.0874V4.84849C11.3333 6.77003 9.838 8.33334 8 8.33334C6.162 8.33334 4.66667 6.77003 4.66667 4.84849V4.0874C4.27933 3.94382 4 3.56049 4 3.10607C4 2.52897 4.448 2.06061 5 2.06061C5.552 2.06061 6 2.52897 6 3.10607V4.84849C6 6.00128 6.89733 6.9394 8 6.9394C9.10267 6.9394 10 6.00128 10 4.84849V3.10607C10 2.52897 10.448 2.06061 11 2.06061C11.552 2.06061 12 2.52897 12 3.10607C12 3.56049 11.7207 3.94382 11.3333 4.0874Z" fill="white"/>
</svg>
