<svg width="16" height="28" viewBox="0 0 16 28" fill="none" xmlns="http://www.w3.org/2000/svg">
<path d="M13.8314 14.0549H13.7876L14.2509 4.1568C14.2615 3.9305 14.0867 3.73849 13.8604 3.72794C13.6341 3.71705 13.4421 3.89222 13.4315 4.11846L12.9664 14.0549H3.03388L2.64555 5.76007C2.5044 2.74455 2.51249 2.93973 2.51249 2.86891C2.51249 1.73934 3.4325 0.820312 4.56333 0.820312H11.4369C12.5677 0.820312 13.4877 1.73934 13.4877 2.86891C13.4877 2.93601 13.4902 2.86355 13.4315 4.11846C13.4209 4.3447 13.5957 4.53671 13.822 4.54732C14.0482 4.55831 14.2403 4.38309 14.2509 4.1568C14.3095 2.90544 14.308 2.96144 14.308 2.86891C14.308 1.28696 13.02 0 11.4369 0H4.56338C2.98023 0 1.69223 1.28696 1.69223 2.86891C1.69223 2.96603 1.6837 2.75466 1.82622 5.79841L2.21275 14.0549H2.16894C1.39998 14.0549 0.774414 14.6805 0.774414 15.4494V17.4832C0.774414 18.2521 1.39998 18.8777 2.16894 18.8777H2.45119V23.3894C2.45119 23.6159 2.63483 23.7996 2.86134 23.7996C3.08786 23.7996 3.2715 23.6159 3.2715 23.3894V18.8777H4.50279L3.93453 26.8713C3.92223 27.0442 3.77681 27.1797 3.6034 27.1797C3.42036 27.1797 3.2715 27.0308 3.2715 26.8478V23.3894C3.2715 23.1629 3.08786 22.9792 2.86134 22.9792C2.63483 22.9792 2.45119 23.1629 2.45119 23.3894V26.8478C2.45119 27.4831 2.96809 28 3.6034 28C4.20523 28 4.71005 27.5297 4.75276 26.9294L5.32518 18.8777H10.6754L11.2478 26.9295C11.2903 27.5297 11.7952 28 12.397 28C13.0323 28 13.5492 27.4831 13.5492 26.8478V18.8777H13.8314C14.6004 18.8777 15.226 18.2521 15.226 17.4832V15.4494C15.226 14.6805 14.6004 14.0549 13.8314 14.0549ZM12.7289 26.8478C12.7289 27.0308 12.58 27.1797 12.397 27.1797C12.2236 27.1797 12.0782 27.0442 12.0658 26.8713L11.4976 18.8777H12.7289V26.8478ZM14.4057 17.4832C14.4057 17.7998 14.1481 18.0574 13.8314 18.0574C12.5629 18.0574 3.4261 18.0574 2.16884 18.0574C1.85219 18.0574 1.59462 17.7998 1.59462 17.4832V15.4494C1.59462 15.1328 1.85219 14.8752 2.16884 14.8752H13.8314C14.1481 14.8752 14.4057 15.1328 14.4057 15.4494V17.4832Z" fill="#909090"/>
</svg>
