<svg width="32" height="25" viewBox="0 0 32 25" fill="none" xmlns="http://www.w3.org/2000/svg">
<g clip-path="url(#clip0_121_319)">
<path d="M5.64827 24.1506V22.5441C5.64827 21.9283 5.27531 21.5267 4.63593 21.5267C4.31625 21.5267 3.96992 21.6338 3.73015 21.9819C3.54367 21.6873 3.27726 21.5267 2.87765 21.5267C2.61125 21.5267 2.34484 21.607 2.13172 21.9015V21.5802H1.57227V24.1506H2.13172V22.7315C2.13172 22.2764 2.37148 22.0622 2.74445 22.0622C3.11742 22.0622 3.3039 22.3031 3.3039 22.7315V24.1506H3.86335V22.7315C3.86335 22.2764 4.12976 22.0622 4.47609 22.0622C4.84906 22.0622 5.03554 22.3031 5.03554 22.7315V24.1506H5.64827ZM13.9335 21.5802H13.0277V20.8038H12.4683V21.5802H11.9621V22.0889H12.4683V23.267C12.4683 23.8561 12.708 24.2041 13.3474 24.2041C13.5872 24.2041 13.8536 24.1238 14.0401 24.0167L13.8802 23.5348C13.7204 23.6419 13.5339 23.6686 13.4007 23.6686C13.1343 23.6686 13.0277 23.508 13.0277 23.2402V22.0889H13.9335V21.5802ZM18.6755 21.5267C18.3558 21.5267 18.1427 21.6873 18.0095 21.9015V21.5802H17.45V24.1506H18.0095V22.7048C18.0095 22.2764 18.196 22.0354 18.5423 22.0354C18.6489 22.0354 18.7821 22.0622 18.8886 22.0889L19.0485 21.5535C18.9419 21.5267 18.7821 21.5267 18.6755 21.5267ZM11.5092 21.7944C11.2428 21.607 10.8698 21.5267 10.4702 21.5267C9.83084 21.5267 9.40459 21.848 9.40459 22.3567C9.40459 22.7851 9.72428 23.0261 10.2837 23.1064L10.5501 23.1332C10.8432 23.1867 11.003 23.267 11.003 23.4009C11.003 23.5883 10.7899 23.7222 10.4169 23.7222C10.044 23.7222 9.75092 23.5883 9.56444 23.4544L9.29803 23.8828C9.59108 24.097 9.99069 24.2041 10.3903 24.2041C11.1362 24.2041 11.5625 23.8561 11.5625 23.3741C11.5625 22.919 11.2162 22.678 10.6833 22.5977L10.4169 22.5709C10.1772 22.5441 9.99069 22.4906 9.99069 22.3299C9.99069 22.1425 10.1772 22.0354 10.4702 22.0354C10.7899 22.0354 11.1096 22.1693 11.2694 22.2496L11.5092 21.7944ZM26.3746 21.5267C26.055 21.5267 25.8418 21.6873 25.7086 21.9015V21.5802H25.1492V24.1506H25.7086V22.7048C25.7086 22.2764 25.8951 22.0354 26.2414 22.0354C26.348 22.0354 26.4812 22.0622 26.5878 22.0889L26.7476 21.5535C26.641 21.5267 26.4812 21.5267 26.3746 21.5267ZM19.235 22.8654C19.235 23.6419 19.7678 24.2041 20.5936 24.2041C20.9666 24.2041 21.233 24.1238 21.4994 23.9096L21.233 23.4544C21.0199 23.6151 20.8068 23.6954 20.567 23.6954C20.1141 23.6954 19.7944 23.3741 19.7944 22.8654C19.7944 22.3835 20.1141 22.0622 20.567 22.0354C20.8068 22.0354 21.0199 22.1157 21.233 22.2764L21.4994 21.8212C21.233 21.607 20.9666 21.5267 20.5936 21.5267C19.7678 21.5267 19.235 22.0889 19.235 22.8654ZM24.4032 22.8654V21.5802H23.8438V21.9015C23.6573 21.6606 23.3909 21.5267 23.0446 21.5267C22.3253 21.5267 21.7658 22.0889 21.7658 22.8654C21.7658 23.6419 22.3253 24.2041 23.0446 24.2041C23.4175 24.2041 23.6839 24.0703 23.8438 23.8293V24.1506H24.4032V22.8654ZM22.3519 22.8654C22.3519 22.4102 22.645 22.0354 23.1245 22.0354C23.5774 22.0354 23.8971 22.3835 23.8971 22.8654C23.8971 23.3206 23.5774 23.6954 23.1245 23.6954C22.645 23.6686 22.3519 23.3206 22.3519 22.8654ZM15.6651 21.5267C14.9192 21.5267 14.3864 22.0622 14.3864 22.8654C14.3864 23.6686 14.9192 24.2041 15.6918 24.2041C16.0647 24.2041 16.4377 24.097 16.7308 23.8561L16.4643 23.4544C16.2512 23.6151 15.9848 23.7222 15.7184 23.7222C15.3721 23.7222 15.0258 23.5615 14.9458 23.1064H16.8373V22.8922C16.864 22.0622 16.3844 21.5267 15.6651 21.5267ZM15.6651 22.0086C16.0115 22.0086 16.2512 22.2228 16.3045 22.6244H14.9725C15.0258 22.2764 15.2655 22.0086 15.6651 22.0086ZM29.5449 22.8654V20.5628H28.9854V21.9015C28.7989 21.6606 28.5325 21.5267 28.1862 21.5267C27.4669 21.5267 26.9075 22.0889 26.9075 22.8654C26.9075 23.6419 27.4669 24.2041 28.1862 24.2041C28.5592 24.2041 28.8256 24.0703 28.9854 23.8293V24.1506H29.5449V22.8654ZM27.4935 22.8654C27.4935 22.4102 27.7866 22.0354 28.2661 22.0354C28.719 22.0354 29.0387 22.3835 29.0387 22.8654C29.0387 23.3206 28.719 23.6954 28.2661 23.6954C27.7866 23.6686 27.4935 23.3206 27.4935 22.8654ZM8.79186 22.8654V21.5802H8.23241V21.9015C8.04593 21.6606 7.77952 21.5267 7.43319 21.5267C6.7139 21.5267 6.15444 22.0889 6.15444 22.8654C6.15444 23.6419 6.7139 24.2041 7.43319 24.2041C7.80616 24.2041 8.07257 24.0703 8.23241 23.8293V24.1506H8.79186V22.8654ZM6.7139 22.8654C6.7139 22.4102 7.00694 22.0354 7.48647 22.0354C7.93936 22.0354 8.25905 22.3835 8.25905 22.8654C8.25905 23.3206 7.93936 23.6954 7.48647 23.6954C7.00694 23.6686 6.7139 23.3206 6.7139 22.8654Z" fill="#FFFCF0"/>
<path d="M19.7141 2.06177H11.3223V17.2161H19.7141V2.06177Z" fill="#FF5F00"/>
<path d="M11.8551 9.6388C11.8551 6.55974 13.2936 3.82875 15.5048 2.06163C13.8797 0.776459 11.8284 0 9.59061 0C4.28913 0 0 4.31069 0 9.6388C0 14.9669 4.28913 19.2776 9.59061 19.2776C11.8284 19.2776 13.8797 18.5011 15.5048 17.216C13.2936 15.4756 11.8551 12.7179 11.8551 9.6388Z" fill="#EB001B"/>
<path d="M31.0361 9.63874C31.0361 14.9669 26.7469 19.2775 21.4455 19.2775C19.2077 19.2775 17.1563 18.5011 15.5312 17.2159C17.7691 15.4488 19.181 12.7178 19.181 9.63874C19.181 6.55968 17.7424 3.82869 15.5312 2.06157C17.1563 0.776398 19.2077 -6.10352e-05 21.4455 -6.10352e-05C26.7469 -6.10352e-05 31.0361 4.3374 31.0361 9.63874Z" fill="#F79E1B"/>
</g>
<defs>
<clipPath id="clip0_121_319">
<rect width="31.0671" height="24.2711" fill="white"/>
</clipPath>
</defs>
</svg>
